<?xml version="1.0" encoding="UTF-8"?>
<svg id="Layer_2" data-name="Layer 2" xmlns="http://www.w3.org/2000/svg" xmlns:xlink="http://www.w3.org/1999/xlink" viewBox="0 0 1162.52 87">
  <defs>
    <style>
      .cls-1 {
        fill: url(#linear-gradient);
      }

      .cls-2 {
        fill: #fff;
      }
    </style>
    <linearGradient id="linear-gradient" x1="152.43" y1="238.02" x2="527.97" y2="-137.52" gradientUnits="userSpaceOnUse">
      <stop offset="0" stop-color="#f72585"/>
      <stop offset=".25" stop-color="#560bad"/>
      <stop offset=".5" stop-color="#3a0ca3"/>
      <stop offset=".75" stop-color="#4361ee"/>
      <stop offset="1" stop-color="#4cc9f0"/>
    </linearGradient>
  </defs>
  <g id="Layer_1-2" data-name="Layer 1">
    <g>
      <path class="cls-1" d="M0,85.58L27.34,1.25h31.25l28.36,84.34h-25.92l-9.79-32.72c-2.11-7.09-4.09-14.46-5.94-22.1-1.85-7.64-3.6-15.24-5.26-22.78h5.21c-1.58,7.55-3.19,15.14-4.81,22.78-1.62,7.64-3.45,15.01-5.49,22.1l-9.34,32.72H0ZM20.26,69.4v-17.09h46.42v17.09H20.26ZM94.98,85.58V1.25h36.34c6.26,0,11.75,1.24,16.44,3.71s8.36,5.95,10.98,10.44c2.62,4.49,3.93,9.74,3.93,15.74s-1.34,11.25-4.02,15.65c-2.68,4.4-6.43,7.79-11.26,10.19-4.83,2.4-10.45,3.59-16.87,3.59h-21.74v-17.77h17.09c2.72,0,5.04-.48,6.96-1.44,1.92-.96,3.4-2.31,4.42-4.05,1.02-1.74,1.53-3.79,1.53-6.17s-.51-4.54-1.53-6.25c-1.02-1.72-2.49-3.03-4.42-3.93-1.92-.91-4.25-1.36-6.96-1.36h-8.04v66h-22.87ZM171.06,85.58V1.25h36.34c6.26,0,11.75,1.24,16.44,3.71,4.7,2.47,8.36,5.95,10.98,10.44,2.62,4.49,3.93,9.74,3.93,15.74s-1.34,11.25-4.02,15.65c-2.68,4.4-6.43,7.79-11.26,10.19s-10.45,3.59-16.87,3.59h-21.74v-17.77h17.09c2.72,0,5.04-.48,6.96-1.44,1.92-.96,3.4-2.31,4.42-4.05,1.02-1.74,1.53-3.79,1.53-6.17s-.51-4.54-1.53-6.25c-1.02-1.72-2.49-3.03-4.42-3.93-1.92-.91-4.25-1.36-6.96-1.36h-8.04v66h-22.87ZM263.94,1.25v84.34h-12.91V1.25h12.91ZM278.43,85.58h-20.83v-11.32h20.15c6.38,0,11.68-1.19,15.91-3.57,4.23-2.38,7.4-5.88,9.51-10.5,2.11-4.62,3.17-10.25,3.17-16.9s-1.05-12.19-3.14-16.75c-2.09-4.57-5.21-8.04-9.34-10.42-4.13-2.38-9.27-3.57-15.42-3.57h-21.28V1.25h22.13c8.3,0,15.42,1.68,21.34,5.04,5.92,3.36,10.47,8.18,13.64,14.46,3.17,6.28,4.75,13.8,4.75,22.56s-1.59,16.34-4.78,22.64c-3.19,6.3-7.81,11.15-13.87,14.55-6.06,3.4-13.37,5.09-21.93,5.09ZM334.7,85.58V1.25h53.09v11.09h-40.19v25.13h37.3v11.04h-37.3v25.98h40.53v11.09h-53.43ZM432.91,87c-6.3,0-11.77-1-16.42-3s-8.27-4.86-10.9-8.58c-2.62-3.72-4.07-8.14-4.33-13.27h12.96c.26,3.06,1.25,5.58,2.97,7.58,1.72,2,3.95,3.49,6.71,4.47,2.75.98,5.74,1.47,8.94,1.47,3.58,0,6.76-.56,9.54-1.67,2.77-1.11,4.97-2.7,6.59-4.75,1.62-2.06,2.43-4.44,2.43-7.16,0-2.45-.71-4.46-2.12-6.03-1.42-1.57-3.32-2.87-5.72-3.91s-5.12-1.95-8.18-2.75l-9.85-2.72c-6.91-1.85-12.29-4.58-16.16-8.21-3.87-3.62-5.8-8.32-5.8-14.09,0-4.87,1.31-9.12,3.93-12.76,2.62-3.64,6.19-6.47,10.7-8.49,4.51-2.02,9.59-3.03,15.25-3.03s10.86,1.01,15.25,3.03c4.4,2.02,7.85,4.78,10.36,8.29,2.51,3.51,3.82,7.51,3.93,12h-12.57c-.41-3.85-2.2-6.83-5.35-8.94-3.15-2.11-7.12-3.17-11.92-3.17-3.4,0-6.35.53-8.86,1.58s-4.45,2.52-5.83,4.39c-1.38,1.87-2.07,3.99-2.07,6.37,0,2.68.82,4.84,2.46,6.48,1.64,1.64,3.64,2.94,6,3.91,2.36.96,4.61,1.73,6.76,2.29l8.21,2.15c2.68.68,5.44,1.59,8.29,2.75,2.85,1.15,5.48,2.64,7.9,4.47,2.42,1.83,4.37,4.09,5.86,6.79s2.24,5.95,2.24,9.76c0,4.75-1.23,9-3.68,12.74-2.45,3.74-6.01,6.67-10.67,8.8s-10.29,3.2-16.9,3.2ZM492.4,1.25v84.34h-12.91V1.25h12.91ZM546.51,86.72c-7.62,0-14.31-1.75-20.07-5.26-5.75-3.51-10.25-8.5-13.47-14.97s-4.84-14.14-4.84-23.01,1.63-16.71,4.9-23.18c3.26-6.47,7.75-11.45,13.44-14.94,5.7-3.49,12.19-5.24,19.47-5.24,4.53,0,8.76.67,12.71,2.01,3.94,1.34,7.47,3.25,10.58,5.72s5.68,5.42,7.7,8.83c2.02,3.42,3.37,7.16,4.05,11.24h-13.25c-.75-2.45-1.79-4.67-3.11-6.65-1.32-1.98-2.9-3.67-4.73-5.07-1.83-1.4-3.91-2.46-6.23-3.2-2.32-.74-4.86-1.1-7.61-1.1-4.75,0-9.03,1.21-12.82,3.62-3.79,2.42-6.79,5.97-9,10.67-2.21,4.7-3.31,10.44-3.31,17.24s1.1,12.53,3.31,17.21c2.21,4.68,5.24,8.24,9.08,10.67,3.85,2.43,8.26,3.65,13.25,3.65,4.53,0,8.48-.92,11.86-2.75,3.38-1.83,6-4.43,7.87-7.81,1.87-3.38,2.8-7.37,2.8-11.97l3.34.57h-24v-10.64h33.28v9.68c0,7.09-1.52,13.24-4.56,18.42s-7.2,9.2-12.48,12.03c-5.28,2.83-11.34,4.25-18.17,4.25ZM597.74,85.58V1.25h14.89l31.75,50.21c1.06,1.66,2.25,3.64,3.57,5.94,1.32,2.3,2.72,4.9,4.19,7.78s2.92,6.03,4.36,9.42h-1.58c-.34-3.21-.59-6.39-.76-9.54-.17-3.15-.29-6.1-.37-8.86-.08-2.75-.11-5.08-.11-6.96V1.25h13.08v84.34h-14.94l-28.47-44.89c-1.51-2.45-2.99-4.92-4.44-7.42-1.45-2.49-3.06-5.37-4.81-8.63-1.75-3.26-3.9-7.24-6.42-11.92h2.04c.19,4.15.38,8.03.57,11.63.19,3.6.33,6.79.42,9.57.09,2.77.14,4.99.14,6.65v45h-13.08Z"/>
      <g>
        <path class="cls-2" d="M689.21,85.58V1.25h2.6v39.96h53.66V1.25h2.6v84.34h-2.6v-41.77h-53.66v41.77h-2.6Z"/>
        <path class="cls-2" d="M804.57,86.72c-6.94,0-13.05-1.82-18.31-5.46-5.26-3.64-9.36-8.72-12.28-15.23s-4.39-14.03-4.39-22.56,1.47-16.16,4.42-22.67c2.94-6.51,7.04-11.58,12.28-15.23,5.25-3.64,11.34-5.46,18.28-5.46s12.98,1.82,18.23,5.46,9.33,8.72,12.25,15.23,4.39,14.07,4.39,22.67-1.46,16.1-4.39,22.61c-2.92,6.51-7.01,11.58-12.25,15.2-5.25,3.62-11.32,5.43-18.23,5.43ZM804.57,84.11c6.38,0,11.99-1.71,16.84-5.12,4.85-3.42,8.63-8.18,11.35-14.29,2.72-6.11,4.08-13.19,4.08-21.23s-1.36-15.17-4.08-21.28c-2.72-6.11-6.5-10.89-11.35-14.32-4.85-3.43-10.46-5.15-16.84-5.15s-12,1.7-16.87,5.09c-4.87,3.4-8.67,8.15-11.41,14.26-2.74,6.11-4.1,13.25-4.1,21.4s1.35,15.06,4.05,21.17c2.7,6.11,6.48,10.89,11.35,14.32,4.87,3.43,10.53,5.15,16.98,5.15Z"/>
        <path class="cls-2" d="M889.47,86.83c-5.74,0-10.9-1.29-15.48-3.88s-8.21-6.12-10.87-10.61c-2.66-4.49-3.99-9.58-3.99-15.28V1.25h2.6v55.81c0,5.21,1.21,9.86,3.62,13.95,2.42,4.09,5.72,7.32,9.91,9.68,4.19,2.36,8.92,3.54,14.21,3.54s10.07-1.18,14.24-3.54,7.46-5.58,9.88-9.68c2.42-4.09,3.62-8.75,3.62-13.95V1.25h2.6v55.81c0,5.7-1.32,10.79-3.96,15.28-2.64,4.49-6.25,8.03-10.84,10.61-4.58,2.58-9.76,3.88-15.54,3.88Z"/>
        <path class="cls-2" d="M966.34,86.94c-5.13,0-9.61-.9-13.44-2.69-3.83-1.79-6.86-4.28-9.08-7.47-2.23-3.19-3.47-6.86-3.74-11.01h2.6c.26,3.66,1.4,6.88,3.4,9.65,2,2.77,4.73,4.93,8.18,6.48,3.45,1.55,7.48,2.32,12.08,2.32,4.87,0,9.11-.84,12.74-2.52,3.62-1.68,6.44-4.03,8.46-7.05,2.02-3.02,3.03-6.51,3.03-10.47,0-3.02-.66-5.67-1.98-7.95-1.32-2.28-3.39-4.31-6.2-6.08-2.81-1.77-6.5-3.36-11.07-4.75l-9.51-2.94c-6.64-2.08-11.6-4.83-14.89-8.26-3.28-3.43-4.92-7.58-4.92-12.45,0-4.15,1.08-7.87,3.25-11.15s5.14-5.87,8.92-7.75,8.06-2.83,12.85-2.83,9.07.96,12.71,2.89,6.54,4.56,8.69,7.9c2.15,3.34,3.36,7.18,3.62,11.52h-2.6c-.42-5.74-2.62-10.45-6.62-14.15-4-3.7-9.26-5.55-15.79-5.55-4.26,0-8.09.82-11.49,2.46-3.4,1.64-6.07,3.91-8.01,6.79s-2.92,6.18-2.92,9.88c0,2.83.64,5.39,1.92,7.67s3.25,4.28,5.89,6,5.96,3.2,9.96,4.44l9.62,2.94c3.62,1.13,6.76,2.4,9.42,3.79,2.66,1.4,4.86,2.96,6.59,4.7,1.74,1.74,3.03,3.67,3.88,5.8.85,2.13,1.27,4.5,1.27,7.1,0,4.38-1.12,8.28-3.37,11.72-2.25,3.43-5.38,6.13-9.4,8.09-4.02,1.96-8.71,2.94-14.07,2.94Z"/>
        <path class="cls-2" d="M1015.25,85.58V1.25h44.94v2.6h-42.34v38.26h39.96v2.6h-39.96v38.26h43.58v2.6h-46.19Z"/>
      </g>
    </g>
    <g>
      <path class="cls-2" d="M1096.19,85.64l56.36.03c5.02-.57,9.04-4.76,9.66-10.04-.32-6.57-.12-13.4.07-20,.21-7.2.43-14.64-.04-21.59-.27-3.88-2.15-7.69-5.16-10.44-4.12-3.76-9.07-7.31-13.85-10.73-4.39-3.14-8.93-6.39-12.96-9.9-1.66-1.08-3.66-1.65-5.77-1.65-.45,0-.9.03-1.35.08-1.54.18-3.3.92-5.21,2.22-5.8,3.94-11.63,8.71-17.27,13.33-3.32,2.72-6.74,5.53-10.12,8.12-2.04,2.38-3.32,5.42-3.69,8.83.36,6.56.14,13.4-.07,20.02-.22,7.14-.46,14.52.05,21.36.39,5.26,4.31,9.58,9.35,10.35ZM1089.71,75.23v-41.32s.01-.13.01-.13c.43-4.94,3.55-7.5,6.05-9.56,3.88-3.19,7.96-6.23,11.9-9.16,4.03-3,8.2-6.11,12.1-9.33l.15-.13.17-.11c.74-.47,2.24-1.28,3.95-1.4.18-.01.36-.02.53-.02,1.04,0,1.84.24,2.49.47l.46.16.38.29c2.84,2.15,5.78,4.32,8.63,6.42,5.61,4.13,11.41,8.4,16.87,12.91,2.45,2.02,5.5,4.54,5.93,9.47v.14s0,41.6,0,41.6l-.03.21c-.55,4.05-3.9,7.11-7.96,7.28h-53.65c-4.19-.2-7.61-3.48-7.97-7.64v-.13Z"/>
      <rect class="cls-2" x="1108.58" y="70.31" width="31.88" height="2.89" rx="1.44" ry="1.44"/>
    </g>
  </g>
</svg>