<?xml version="1.0" encoding="UTF-8"?>
<svg id="Layer_2" data-name="Layer 2" xmlns="http://www.w3.org/2000/svg" xmlns:xlink="http://www.w3.org/1999/xlink" viewBox="0 0 172.93 191.94">
  <defs>
    <style>
      .cls-1 {
        fill: url(#linear-gradient);
      }
    </style>
    <linearGradient id="linear-gradient" x1="134.32" y1="203.4" x2="32.73" y2="27.45" gradientUnits="userSpaceOnUse">
      <stop offset="0" stop-color="#f72585"/>
      <stop offset=".25" stop-color="#560bad"/>
      <stop offset=".5" stop-color="#3a0ca3"/>
      <stop offset=".75" stop-color="#4361ee"/>
      <stop offset="1" stop-color="#4cc9f0"/>
    </linearGradient>
  </defs>
  <g id="Layer_1-2" data-name="Layer 1">
    <path class="cls-1" d="M21.98,191.87l128.25.08c11.43-1.3,20.58-10.82,21.99-22.85-.74-14.96-.28-30.49.16-45.51.49-16.38.98-33.31-.1-49.12-.61-8.84-4.89-17.5-11.74-23.75-9.38-8.56-20.63-16.63-31.52-24.42-9.99-7.16-20.31-14.55-29.5-22.52-3.79-2.46-8.32-3.76-13.14-3.76-1.02,0-2.05.06-3.07.17-3.51.4-7.5,2.1-11.85,5.05-13.21,8.96-26.48,19.83-39.31,30.35-7.55,6.18-15.35,12.57-23.02,18.48-4.65,5.42-7.54,12.34-8.4,20.09.81,14.93.32,30.5-.15,45.55-.51,16.24-1.04,33.04.11,48.62.88,11.98,9.81,21.81,21.29,23.55ZM7.24,168.18v-94.03s.03-.31.03-.31c.97-11.24,8.07-17.07,13.77-21.76,8.83-7.26,18.12-14.17,27.09-20.85,9.18-6.83,18.67-13.9,27.54-21.24l.35-.29.38-.24c1.69-1.07,5.1-2.91,8.99-3.19.42-.03.82-.04,1.2-.04,2.36,0,4.19.54,5.66,1.06l1.04.37.88.67c6.46,4.9,13.16,9.83,19.63,14.6,12.77,9.4,25.97,19.12,38.4,29.37,5.58,4.6,12.52,10.33,13.49,21.54l.03.31v94.67s-.08.48-.08.48c-1.26,9.21-8.88,16.18-18.12,16.58H25.42c-9.53-.45-17.33-7.92-18.15-17.39l-.03-.31ZM121.28,163.55H51.63c-.8,0-1.44-.65-1.44-1.44v-3.69c0-.8.65-1.44,1.44-1.44h69.66c.8,0,1.44.65,1.44,1.44v3.69c0,.8-.65,1.44-1.44,1.44Z"/>
  </g>
</svg>